# xmcd
#
# Track frame offsets:
#	225
#	12887
#	26541
#	40531
#	55791
#	68506
#	84322
#	97887
#	113106
#	129136
#	146347
#	164666
#	176244
#
# Disc length: 2629 seconds
#
# Revision: 1
# Processed by: cddbd v1.5.2PL0 Copyright (c) Steve Scherf et al.
# Submitted via: audiograbber 1.83.01
#
DISCID=980a420d
DTITLE=TJ Stuart - This Time
DYEAR=1900
DGENRE=
TTITLE0=Loves Blind
TTITLE1=Without Love
TTITLE2=Cold Cold Heart
TTITLE3=Woodcarver
TTITLE4=Don't Stop The Boogie
TTITLE5=My Irish Coleen
TTITLE6=There'll Never Be Another You
TTITLE7=As I Sit Here Today
TTITLE8=Me And Bobby Mcgee
TTITLE9=I'll Make The Journey Lighter
TTITLE10=While The Feeling's Good
TTITLE11=The Fireman
TTITLE12=This Time
EXTD=
EXTT0=
EXTT1=
EXTT2=
EXTT3=
EXTT4=
EXTT5=
EXTT6=
EXTT7=
EXTT8=
EXTT9=
EXTT10=
EXTT11=
EXTT12=
PLAYORDER=
